/* XPM */
static char * buttons_xpm[] = {
"40 13 100 2 6 6",
"  	c None",
". 	c #EBEBEB",
"+ 	c #C3C3C3",
"@ 	c #8C8C8C",
"# 	c #939393",
"$ 	c #565656",
"% 	c #BBBBBB",
"& 	c #B7B7B7",
"* 	c #383838",
"= 	c #A7A7A7",
"- 	c #707070",
"; 	c #0D0D0D",
"> 	c #DDDDDD",
", 	c #D2D2D2",
"' 	c #F7F7F7",
") 	c #CACACA",
"! 	c #555555",
"~ 	c #CFCFCF",
"{ 	c #FEFEFE",
"] 	c #AEAEAE",
"^ 	c #1C1C1C",
"/ 	c #A8A8A8",
"( 	c #F6F6F6",
"_ 	c #EEEEEE",
": 	c #F9F9F9",
"< 	c #8F8F8F",
"[ 	c #CECECE",
"} 	c #FBFBFB",
"| 	c #BCBCBC",
"1 	c #E6E6E6",
"2 	c #DEDEDE",
"3 	c #FAFAFA",
"4 	c #C7C7C7",
"5 	c #A6A6A6",
"6 	c #FFFFFF",
"7 	c #737373",
"8 	c #E2E2E2",
"9 	c #D1D1D1",
"0 	c #585858",
"a 	c #ECECEC",
"b 	c #8D8D8D",
"c 	c #E3E3E3",
"d 	c #E0E0E0",
"e 	c #FCFCFC",
"f 	c #C4C4C4",
"g 	c #717171",
"h 	c #3B3B3B",
"i 	c #BEBEBE",
"j 	c #D0D0D0",
"k 	c #E4E4E4",
"l 	c #C0C0C0",
"m 	c #BDBDBD",
"n 	c #909090",
"o 	c #757575",
"p 	c #222222",
"q 	c #E7E7E7",
"r 	c #DCDCDC",
"s 	c #EDEDED",
"t 	c #BFBFBF",
"u 	c #D5D5D5",
"v 	c #E8E8E8",
"w 	c #FDFDFD",
"x 	c #D4D4D4",
"y 	c #EAEAEA",
"z 	c #CDCDCD",
"A 	c #B9B9B9",
"B 	c #D3D3D3",
"C 	c #EFEFEF",
"D 	c #B3B3B3",
"E 	c #2E2E2E",
"F 	c #B6B6B6",
"G 	c #888888",
"H 	c #6C6C6C",
"I 	c #F3F3F3",
"J 	c #9F9F9F",
"K 	c #F2F2F2",
"L 	c #AFAFAF",
"M 	c #696969",
"N 	c #DBDBDB",
"O 	c #323232",
"P 	c #B8B8B8",
"Q 	c #F4F4F4",
"R 	c #A1A1A1",
"S 	c #4B4B4B",
"T 	c #F5F5F5",
"U 	c #AAAAAA",
"V 	c #CBCBCB",
"W 	c #4D4D4D",
"X 	c #E9E9E9",
"Y 	c #848484",
"Z 	c #A5A5A5",
"` 	c #C9C9C9",
" .	c #A0A0A0",
"..	c #878787",
"+.	c #B5B5B5",
"@.	c #999999",
"#.	c #838383",
"$.	c #B1B1B1",
"%.	c #A3A3A3",
"&.	c #686868",
". +               @ #               $ % & *               = -             ; > , ",
"' )           ! ~ { ]           ^ / ( _ : _ <             [ } | *           1 2 ",
"3 4       ^ 5 ( 6 6 ]         7 8 6 6 _ 3 6 { 9 0         [ 6 6 a b         c d ",
"e f     g d 6 6 6 6 ]     h i } 6 6 6 _ 3 6 6 6 ( / ^     [ 6 6 6 { j !     d k ",
"{ l * m } 6 6 6 6 6 ] ; n _ 6 6 6 6 6 _ 3 6 6 6 6 6 8 o   [ 6 6 6 6 6 ( 5 p > q ",
"6 r s 6 6 6 6 6 6 6 i , { 6 6 6 6 6 6 _ 3 6 6 6 6 6 6 } t u 6 6 6 6 6 6 6 d v . ",
"6 6 6 6 6 6 6 6 6 6 w 6 6 6 6 6 6 6 6 _ 3 6 6 6 6 6 6 6 6 w 6 6 6 6 6 6 6 6 6 s ",
"6 x y 6 6 6 6 6 6 6 % z w 6 6 6 6 6 6 _ 3 6 6 6 6 6 6 3 A B 6 6 6 6 6 6 6 r 8 C ",
"6 D E F 3 6 6 6 6 6 ]   G . 6 6 6 6 6 _ 3 6 6 6 6 6 > H   [ 6 6 6 6 6 I J   , K ",
"6 L     M N 6 6 6 6 ]     O P 3 6 6 6 _ 3 6 6 6 Q R       [ 6 6 6 w ) S     ~ T ",
"6 U         J I 6 6 ]         H > 6 6 _ 3 6 { V W         [ 6 6 X Y         V ' ",
"6 Z           S ` w ]              .Q _ : y ..            [ 3 +.E           4 : ",
"_ @.              #.n               W F $.E               %.&.              A . "};
